<?xml version="1.0" encoding="UTF-8" standalone="no"?>
<!DOCTYPE svg PUBLIC "-//W3C//DTD SVG 1.1//EN" "http://www.w3.org/Graphics/SVG/1.1/DTD/svg11.dtd">
<svg width="100%" height="100%" viewBox="0 0 1280 640" version="1.1" xmlns="http://www.w3.org/2000/svg" xmlns:xlink="http://www.w3.org/1999/xlink" xml:space="preserve" xmlns:serif="http://www.serif.com/" style="fill-rule:evenodd;clip-rule:evenodd;stroke-linecap:round;stroke-linejoin:round;stroke-miterlimit:1.5;">
    <g transform="matrix(0.774236,0,0,0.79933,73.6653,71.0318)">
        <rect x="-98.62" y="-88.864" width="1656.72" height="800.671" style="fill:white;"/>
    </g>
    <g transform="matrix(0.756342,0,0,0.756342,92.3686,33.3252)">
        <path d="M508.527,180.555L508.527,561.134C508.527,596.742 479.618,625.651 444.01,625.651L64.518,625.651C28.909,625.651 -0,596.742 -0,561.134L-0,180.555C-0,144.947 28.909,116.037 64.518,116.037L444.01,116.037C479.618,116.037 508.527,144.947 508.527,180.555Z" style="fill:rgb(235,235,235);"/>
    </g>
    <g transform="matrix(0.756342,0,0,0.756342,92.3686,33.3252)">
        <path d="M508.527,180.555L508.527,561.134C508.527,596.742 479.618,625.651 444.01,625.651L64.518,625.651C28.909,625.651 -0,596.742 -0,561.134L-0,180.555C-0,144.947 28.909,116.037 64.518,116.037L444.01,116.037C479.618,116.037 508.527,144.947 508.527,180.555Z" style="fill:url(#_Linear1);"/>
    </g>
    <g transform="matrix(0.756342,0,0,-0.756342,92.3686,594.282)">
        <path d="M69.431,143.628C69.326,121.902 80.842,101.776 99.626,90.858C118.41,79.94 141.597,79.895 160.423,90.74C240.067,136.619 350.987,200.515 405.113,231.695C425.108,243.213 437.475,264.49 437.587,287.565C437.914,354.92 438.614,499.153 439.096,598.652C439.201,620.161 427.8,640.086 409.204,650.895C390.607,661.704 367.652,661.748 349.014,651.012C275.216,608.5 174.109,550.257 116.401,517.014C88.362,500.862 71.02,471.026 70.863,438.668C70.515,366.897 69.881,236.205 69.431,143.628Z" style="fill:url(#_Linear2);stroke:rgb(235,235,235);stroke-width:1px;"/>
    </g>
    <g transform="matrix(0.647706,0,0,0.647706,90.4975,70.2733)">
        <g transform="matrix(2.2568,1.51442,-0.477777,0.711984,39.6637,-69.2675)">
            <path d="M149.041,337.411L149.041,466.154C149.041,477.786 146.062,487.23 142.392,487.23C138.722,487.23 135.743,477.786 135.743,466.154L135.743,337.411C135.743,325.779 138.722,316.335 142.392,316.335C146.062,316.335 149.041,325.779 149.041,337.411Z" style="fill:white;"/>
        </g>
        <g transform="matrix(2.2568,1.51442,-0.477777,0.711984,137.314,-149.687)">
            <path d="M149.041,337.411L149.041,466.154C149.041,477.786 146.062,487.23 142.392,487.23C138.722,487.23 135.743,477.786 135.743,466.154L135.743,337.411C135.743,325.779 138.722,316.335 142.392,316.335C146.062,316.335 149.041,325.779 149.041,337.411Z" style="fill:white;"/>
        </g>
        <g transform="matrix(-1.77376,2.05922,-0.649651,-0.559594,855.15,272.61)">
            <path d="M149.041,337.411L149.041,466.154C149.041,477.786 146.062,487.23 142.392,487.23C138.722,487.23 135.743,477.786 135.743,466.154L135.743,337.411C135.743,325.779 138.722,316.335 142.392,316.335C146.062,316.335 149.041,325.779 149.041,337.411Z" style="fill:white;"/>
        </g>
        <g transform="matrix(-1.59986,2.19706,-0.331085,-0.241091,578.708,179.104)">
            <path d="M149.041,360.458L149.041,443.106C149.041,467.459 146.062,487.23 142.392,487.23C138.722,487.23 135.743,467.459 135.743,443.106L135.743,360.458C135.743,336.106 138.722,316.335 142.392,316.335C146.062,316.335 149.041,336.106 149.041,360.458Z" style="fill:white;"/>
        </g>
        <g transform="matrix(2.26615,1.50039,-0.226102,0.341497,165.612,15.6839)">
            <path d="M149.041,360.458L149.041,443.106C149.041,467.459 146.062,487.23 142.392,487.23C138.722,487.23 135.743,467.459 135.743,443.106L135.743,360.458C135.743,336.106 138.722,316.335 142.392,316.335C146.062,316.335 149.041,336.106 149.041,360.458Z" style="fill:white;"/>
        </g>
        <circle cx="438.41" cy="318.21" r="40.961" style="fill:white;"/>
    </g>
    <g transform="matrix(201.996,0,0,201.996,498.791,300.511)">
        <path d="M0.384,0.008C0.356,0.008 0.332,0.003 0.312,-0.006C0.292,-0.015 0.275,-0.027 0.261,-0.042C0.248,-0.056 0.238,-0.072 0.231,-0.089L0.224,-0.089L0.224,0L0.056,0L0.056,-0.728L0.227,-0.728L0.227,-0.452L0.231,-0.452C0.237,-0.469 0.247,-0.485 0.26,-0.5C0.274,-0.515 0.29,-0.528 0.311,-0.538C0.331,-0.548 0.356,-0.553 0.385,-0.553C0.423,-0.553 0.459,-0.543 0.492,-0.523C0.525,-0.503 0.552,-0.472 0.572,-0.43C0.592,-0.389 0.602,-0.336 0.602,-0.272C0.602,-0.211 0.593,-0.159 0.573,-0.117C0.554,-0.076 0.527,-0.045 0.494,-0.024C0.461,-0.002 0.424,0.008 0.384,0.008ZM0.326,-0.125C0.348,-0.125 0.366,-0.131 0.381,-0.143C0.396,-0.156 0.408,-0.173 0.415,-0.195C0.423,-0.217 0.427,-0.243 0.427,-0.272C0.427,-0.302 0.423,-0.328 0.416,-0.35C0.408,-0.372 0.396,-0.389 0.381,-0.401C0.366,-0.413 0.348,-0.42 0.326,-0.42C0.304,-0.42 0.285,-0.414 0.27,-0.402C0.255,-0.39 0.243,-0.373 0.235,-0.351C0.227,-0.329 0.223,-0.303 0.223,-0.272C0.223,-0.243 0.227,-0.217 0.235,-0.195C0.243,-0.173 0.255,-0.156 0.27,-0.143C0.286,-0.131 0.304,-0.125 0.326,-0.125Z" style="fill-rule:nonzero;"/>
    </g>
    <g transform="matrix(201.996,0,0,201.996,615.937,300.511)">
        <path d="M0.31,0.01C0.253,0.01 0.204,-0.001 0.163,-0.024C0.122,-0.046 0.09,-0.078 0.068,-0.12C0.046,-0.162 0.035,-0.213 0.035,-0.271C0.035,-0.327 0.046,-0.376 0.068,-0.419C0.09,-0.461 0.121,-0.494 0.162,-0.517C0.202,-0.541 0.25,-0.553 0.304,-0.553C0.343,-0.553 0.378,-0.547 0.41,-0.535C0.442,-0.523 0.47,-0.505 0.493,-0.481C0.517,-0.458 0.535,-0.429 0.548,-0.394C0.561,-0.359 0.568,-0.319 0.568,-0.274L0.568,-0.231L0.096,-0.231L0.096,-0.331L0.486,-0.331L0.407,-0.307C0.407,-0.333 0.403,-0.354 0.395,-0.373C0.388,-0.391 0.376,-0.405 0.361,-0.415C0.347,-0.424 0.328,-0.429 0.306,-0.429C0.283,-0.429 0.265,-0.424 0.249,-0.414C0.234,-0.405 0.223,-0.391 0.215,-0.373C0.207,-0.355 0.203,-0.334 0.203,-0.311L0.203,-0.239C0.203,-0.211 0.207,-0.188 0.216,-0.169C0.226,-0.15 0.239,-0.136 0.255,-0.127C0.272,-0.118 0.291,-0.113 0.313,-0.113C0.329,-0.113 0.343,-0.115 0.355,-0.12C0.368,-0.124 0.378,-0.13 0.387,-0.139C0.396,-0.147 0.403,-0.157 0.408,-0.169L0.56,-0.144C0.551,-0.113 0.535,-0.086 0.512,-0.063C0.49,-0.039 0.462,-0.022 0.428,-0.009C0.394,0.004 0.355,0.01 0.31,0.01Z" style="fill-rule:nonzero;"/>
    </g>
    <g transform="matrix(201.996,0,0,201.996,727.751,300.511)">
        <path d="M0.209,0.01C0.174,0.01 0.143,0.004 0.116,-0.008C0.089,-0.02 0.068,-0.038 0.052,-0.062C0.037,-0.086 0.029,-0.116 0.029,-0.152C0.029,-0.182 0.034,-0.207 0.045,-0.228C0.056,-0.249 0.07,-0.266 0.089,-0.279C0.108,-0.292 0.13,-0.302 0.154,-0.308C0.179,-0.315 0.205,-0.32 0.232,-0.322C0.263,-0.325 0.288,-0.328 0.307,-0.331C0.326,-0.334 0.34,-0.338 0.349,-0.345C0.357,-0.351 0.362,-0.359 0.362,-0.371L0.362,-0.373C0.362,-0.385 0.359,-0.396 0.353,-0.405C0.347,-0.414 0.339,-0.42 0.328,-0.425C0.317,-0.429 0.303,-0.432 0.287,-0.432C0.272,-0.432 0.258,-0.429 0.246,-0.425C0.234,-0.42 0.224,-0.414 0.216,-0.405C0.208,-0.397 0.202,-0.387 0.199,-0.375L0.045,-0.396C0.052,-0.427 0.066,-0.454 0.087,-0.478C0.108,-0.501 0.136,-0.52 0.17,-0.533C0.204,-0.546 0.244,-0.553 0.289,-0.553C0.323,-0.553 0.355,-0.549 0.384,-0.541C0.413,-0.533 0.439,-0.521 0.461,-0.506C0.484,-0.49 0.501,-0.471 0.513,-0.448C0.526,-0.426 0.532,-0.4 0.532,-0.371L0.532,0L0.372,0L0.372,-0.076L0.367,-0.076C0.357,-0.058 0.345,-0.042 0.33,-0.029C0.315,-0.017 0.297,-0.007 0.277,0C0.257,0.006 0.234,0.01 0.209,0.01ZM0.261,-0.103C0.28,-0.103 0.297,-0.107 0.313,-0.115C0.328,-0.123 0.34,-0.133 0.349,-0.147C0.359,-0.161 0.363,-0.176 0.363,-0.194L0.363,-0.247C0.358,-0.244 0.352,-0.242 0.345,-0.239C0.337,-0.237 0.329,-0.235 0.321,-0.233C0.312,-0.231 0.303,-0.23 0.294,-0.228C0.285,-0.227 0.277,-0.225 0.269,-0.224C0.252,-0.222 0.238,-0.218 0.227,-0.212C0.215,-0.207 0.206,-0.2 0.2,-0.191C0.194,-0.182 0.191,-0.172 0.191,-0.159C0.191,-0.147 0.194,-0.137 0.2,-0.129C0.206,-0.12 0.214,-0.114 0.224,-0.11C0.235,-0.105 0.247,-0.103 0.261,-0.103Z" style="fill-rule:nonzero;"/>
    </g>
    <g transform="matrix(201.996,0,0,201.996,834.94,300.511)">
        <path d="M0.309,0.01C0.252,0.01 0.203,-0.002 0.163,-0.025C0.122,-0.049 0.09,-0.082 0.068,-0.124C0.046,-0.166 0.035,-0.215 0.035,-0.271C0.035,-0.327 0.046,-0.376 0.068,-0.419C0.09,-0.461 0.122,-0.494 0.163,-0.517C0.203,-0.541 0.252,-0.553 0.309,-0.553C0.344,-0.553 0.376,-0.548 0.405,-0.539C0.434,-0.53 0.459,-0.517 0.481,-0.5C0.503,-0.484 0.521,-0.463 0.534,-0.439C0.548,-0.415 0.557,-0.389 0.561,-0.359L0.404,-0.333C0.401,-0.347 0.397,-0.36 0.392,-0.371C0.387,-0.382 0.38,-0.391 0.372,-0.399C0.365,-0.407 0.356,-0.413 0.345,-0.417C0.335,-0.421 0.324,-0.423 0.312,-0.423C0.29,-0.423 0.271,-0.417 0.256,-0.405C0.241,-0.393 0.229,-0.375 0.221,-0.353C0.213,-0.33 0.209,-0.303 0.209,-0.272C0.209,-0.241 0.213,-0.214 0.221,-0.191C0.229,-0.168 0.241,-0.151 0.256,-0.138C0.271,-0.126 0.29,-0.12 0.312,-0.12C0.324,-0.12 0.335,-0.122 0.346,-0.126C0.356,-0.13 0.365,-0.136 0.373,-0.144C0.381,-0.152 0.387,-0.162 0.393,-0.174C0.398,-0.185 0.402,-0.198 0.404,-0.213L0.561,-0.187C0.557,-0.157 0.548,-0.129 0.535,-0.105C0.521,-0.081 0.504,-0.06 0.482,-0.043C0.46,-0.026 0.435,-0.013 0.406,-0.003C0.377,0.006 0.344,0.01 0.309,0.01Z" style="fill-rule:nonzero;"/>
    </g>
    <g transform="matrix(201.996,0,0,201.996,943.577,300.511)">
        <path d="M0.31,0.01C0.253,0.01 0.204,-0.002 0.163,-0.025C0.122,-0.049 0.09,-0.082 0.068,-0.124C0.046,-0.166 0.035,-0.215 0.035,-0.271C0.035,-0.327 0.046,-0.376 0.068,-0.419C0.09,-0.461 0.122,-0.494 0.163,-0.517C0.204,-0.541 0.253,-0.553 0.31,-0.553C0.367,-0.553 0.416,-0.541 0.457,-0.517C0.497,-0.494 0.529,-0.461 0.551,-0.419C0.573,-0.376 0.584,-0.327 0.584,-0.271C0.584,-0.215 0.573,-0.166 0.551,-0.124C0.529,-0.082 0.497,-0.049 0.457,-0.025C0.416,-0.002 0.367,0.01 0.31,0.01ZM0.31,-0.12C0.331,-0.12 0.35,-0.126 0.365,-0.139C0.38,-0.152 0.391,-0.169 0.399,-0.192C0.406,-0.215 0.41,-0.242 0.41,-0.272C0.41,-0.302 0.406,-0.329 0.399,-0.351C0.391,-0.374 0.38,-0.391 0.365,-0.404C0.35,-0.416 0.331,-0.423 0.31,-0.423C0.288,-0.423 0.269,-0.416 0.254,-0.404C0.239,-0.391 0.228,-0.374 0.22,-0.351C0.213,-0.329 0.209,-0.302 0.209,-0.272C0.209,-0.242 0.213,-0.215 0.22,-0.192C0.228,-0.169 0.239,-0.152 0.254,-0.139C0.269,-0.126 0.288,-0.12 0.31,-0.12Z" style="fill-rule:nonzero;"/>
    </g>
    <g transform="matrix(201.996,0,0,201.996,1059.76,302.531)">
        <path d="M0.227,-0.312L0.227,0L0.056,0L0.056,-0.546L0.217,-0.546L0.22,-0.408L0.212,-0.408C0.226,-0.452 0.247,-0.487 0.275,-0.513C0.304,-0.539 0.342,-0.553 0.39,-0.553C0.428,-0.553 0.462,-0.544 0.49,-0.527C0.518,-0.51 0.54,-0.486 0.556,-0.456C0.571,-0.425 0.579,-0.389 0.579,-0.347L0.579,-0L0.409,-0L0.409,-0.314C0.409,-0.345 0.401,-0.369 0.385,-0.387C0.37,-0.404 0.348,-0.413 0.32,-0.413C0.301,-0.413 0.285,-0.409 0.271,-0.401C0.257,-0.393 0.246,-0.381 0.238,-0.366C0.231,-0.351 0.227,-0.333 0.227,-0.312Z" style="fill-rule:nonzero;"/>
    </g>
    <g transform="matrix(1.16438,0,0,1.16438,-165.381,-184.147)">
        <g transform="matrix(194.595,0,0,194.595,1147.56,563.026)">
        </g>
        <text x="564.365px" y="563.026px" style="font-family:'SourceSans3-Light', 'Source Sans 3', sans-serif;font-weight:300;font-size:194.595px;">me<tspan x="814.419px " y="563.026px ">t</tspan>rics</text>
    </g>
    <defs>
        <linearGradient id="_Linear1" x1="0" y1="0" x2="1" y2="0" gradientUnits="userSpaceOnUse" gradientTransform="matrix(508.527,0,0,508.527,-2.84217e-14,116.037)"><stop offset="0" style="stop-color:rgb(218,218,218);stop-opacity:1"/><stop offset="1" style="stop-color:rgb(192,192,192);stop-opacity:1"/></linearGradient>
        <linearGradient id="_Linear2" x1="0" y1="0" x2="1" y2="0" gradientUnits="userSpaceOnUse" gradientTransform="matrix(369.666,659.033,-659.033,369.666,69.4303,0)"><stop offset="0" style="stop-color:rgb(0,226,129);stop-opacity:1"/><stop offset="0.33" style="stop-color:rgb(0,236,199);stop-opacity:1"/><stop offset="0.5" style="stop-color:rgb(0,241,237);stop-opacity:1"/><stop offset="0.67" style="stop-color:rgb(0,216,245);stop-opacity:1"/><stop offset="1" style="stop-color:rgb(0,154,255);stop-opacity:1"/></linearGradient>
    </defs>
</svg>
